<?xml version="1.0" encoding="UTF-8"?>
<svg width="88px" height="58px" viewBox="0 0 88 58" version="1.1" xmlns="http://www.w3.org/2000/svg" xmlns:xlink="http://www.w3.org/1999/xlink">
    <!-- Generator: Sketch 61.2 (89653) - https://sketch.com -->
    <title>noun_fast_235437</title>
    <desc>Created with Sketch.</desc>
    <defs>
        <linearGradient x1="50%" y1="-20.6668736%" x2="50%" y2="174.122087%" id="linearGradient-1">
            <stop stop-color="#FFBA00" offset="0%"></stop>
            <stop stop-color="#FF5500" offset="100%"></stop>
            <stop stop-color="#FF8400" offset="100%"></stop>
        </linearGradient>
        <linearGradient x1="50%" y1="-20.6668736%" x2="50%" y2="174.122087%" id="linearGradient-2">
            <stop stop-color="#FFBA00" offset="0%"></stop>
            <stop stop-color="#FF5500" offset="100%"></stop>
            <stop stop-color="#FF8400" offset="100%"></stop>
        </linearGradient>
        <linearGradient x1="50%" y1="-20.6668736%" x2="50%" y2="174.122087%" id="linearGradient-3">
            <stop stop-color="#FFBA00" offset="0%"></stop>
            <stop stop-color="#FF5500" offset="100%"></stop>
            <stop stop-color="#FF8400" offset="100%"></stop>
        </linearGradient>
    </defs>
    <g id="Page-1" stroke="none" stroke-width="1" fill="none" fill-rule="evenodd">
        <g id="Artboard" transform="translate(-636.000000, -536.000000)" fill-rule="nonzero">
            <g id="noun_fast_235437" transform="translate(636.000000, 536.000000)">
                <path d="M58.490623,0.304262295 C57.2982951,0.304262295 56.3313115,1.2712459 56.3313115,2.46357377 L56.3313115,13.5254098 C56.3313115,14.7177377 57.2982951,15.6847213 58.490623,15.6847213 C59.6829508,15.6847213 60.6499344,14.7177377 60.6499344,13.5254098 L60.6499344,4.71701639 C73.0857049,5.81331148 82.8724918,16.287541 82.8724918,29.0038033 C82.8724918,42.4474426 71.9352131,53.3847213 58.4915738,53.3847213 C45.0479344,53.3847213 34.1097049,42.4474426 34.1097049,29.0038033 C34.1097049,21.2460656 37.8559344,13.8800656 44.1303934,9.29806557 C45.0935738,8.59445902 45.3037049,7.24429508 44.6010492,6.28111475 C43.8983934,5.31793443 42.5472787,5.10685246 41.5840984,5.81045902 C34.2000328,11.2016066 29.791082,19.8721311 29.791082,29.0038033 C29.791082,44.8282951 42.6651803,57.7033443 58.490623,57.7033443 C74.3151148,57.7033443 87.1901639,44.8292459 87.1901639,29.0038033 C87.1901639,13.1783607 74.3160656,0.304262295 58.490623,0.304262295 Z" id="Path" fill="url(#linearGradient-1)"></path>
                <path d="M44.0305574,20.8952131 C43.4305902,21.9259016 43.7785902,23.247541 44.8092787,23.8475082 L56.8637705,30.8693115 C57.2051148,31.0689836 57.5797377,31.1631148 57.9486557,31.1631148 C58.6921967,31.1631148 59.4157705,30.7789836 59.8160656,30.0905902 C60.4160328,29.0599016 60.0680328,27.7382623 59.0373443,27.1382951 L46.9828525,20.1164918 C45.9531148,19.5155738 44.6305246,19.8635738 44.0305574,20.8952131 Z" id="Path" fill="url(#linearGradient-2)"></path>
                <path d="M5.86370492,14.7614754 L25.830918,14.7614754 C26.880623,14.7614754 27.7325574,13.909541 27.7325574,12.8598361 C27.7325574,11.8101311 26.880623,10.9581967 25.830918,10.9581967 L5.86370492,10.9581967 C4.814,10.9581967 3.96206557,11.8101311 3.96206557,12.8598361 C3.96206557,13.909541 4.81304918,14.7614754 5.86370492,14.7614754 Z" id="Path" fill="url(#linearGradient-3)"></path>
                <path d="M2.06042623,24.8915082 L22.0276393,24.8915082 C23.0773443,24.8915082 23.9292787,24.0395738 23.9292787,22.9898689 C23.9292787,21.9401639 23.0773443,21.0882295 22.0276393,21.0882295 L2.06042623,21.0882295 C1.01072131,21.0882295 0.158786885,21.9401639 0.158786885,22.9898689 C0.158786885,24.0395738 1.00977049,24.8915082 2.06042623,24.8915082 Z" id="Path" fill="url(#linearGradient-3)"></path>
                <path d="M23.9292787,33.1199016 C23.9292787,32.0701967 23.0773443,31.2182623 22.0276393,31.2182623 L2.06042623,31.2182623 C1.01072131,31.2182623 0.158786885,32.0701967 0.158786885,33.1199016 C0.158786885,34.1696066 1.01072131,35.021541 2.06042623,35.021541 L22.0276393,35.021541 C23.0773443,35.021541 23.9292787,34.1705574 23.9292787,33.1199016 Z" id="Path" fill="url(#linearGradient-3)"></path>
                <path d="M27.7325574,43.2499344 C27.7325574,42.2002295 26.880623,41.3482951 25.830918,41.3482951 L5.86370492,41.3482951 C4.814,41.3482951 3.96206557,42.2002295 3.96206557,43.2499344 C3.96206557,44.2996393 4.814,45.1515738 5.86370492,45.1515738 L25.830918,45.1515738 C26.880623,45.1515738 27.7325574,44.3005902 27.7325574,43.2499344 Z" id="Path" fill="url(#linearGradient-3)"></path>
            </g>
        </g>
    </g>
</svg>