<?xml version="1.0" encoding="UTF-8"?>
<svg width="129px" height="113px" viewBox="0 0 129 113" version="1.1" xmlns="http://www.w3.org/2000/svg" xmlns:xlink="http://www.w3.org/1999/xlink">
    <title>LOGO</title>
    <desc>Libby.Cards Logo</desc>
    <defs>
        <linearGradient x1="50%" y1="0%" x2="50%" y2="100%" id="linearGradient-1">
            <stop stop-color="#FFBA00" offset="0%"></stop>
            <stop stop-color="#FF5500" offset="100%"></stop>
            <stop stop-color="#FF8400" offset="100%"></stop>
        </linearGradient>
        <linearGradient x1="50%" y1="0%" x2="50%" y2="100%" id="linearGradient-2">
            <stop stop-color="#FFBA00" offset="0%"></stop>
            <stop stop-color="#FF5500" offset="100%"></stop>
            <stop stop-color="#FF8400" offset="100%"></stop>
        </linearGradient>
        <linearGradient x1="50%" y1="0%" x2="50%" y2="100%" id="linearGradient-3">
            <stop stop-color="#FFBA00" offset="0%"></stop>
            <stop stop-color="#FF5500" offset="100%"></stop>
            <stop stop-color="#FF8400" offset="100%"></stop>
        </linearGradient>
        <linearGradient x1="50%" y1="0%" x2="50%" y2="100%" id="linearGradient-4">
            <stop stop-color="#FFBA00" offset="0%"></stop>
            <stop stop-color="#FF5500" offset="100%"></stop>
            <stop stop-color="#FF8400" offset="100%"></stop>
        </linearGradient>
        <linearGradient x1="50%" y1="0%" x2="50%" y2="100%" id="linearGradient-5">
            <stop stop-color="#FFBA00" offset="0%"></stop>
            <stop stop-color="#FF5500" offset="100%"></stop>
            <stop stop-color="#FF8400" offset="100%"></stop>
        </linearGradient>
        <linearGradient x1="50%" y1="0%" x2="50%" y2="100%" id="linearGradient-6">
            <stop stop-color="#FFBA00" offset="0%"></stop>
            <stop stop-color="#FF5500" offset="100%"></stop>
            <stop stop-color="#FF8400" offset="100%"></stop>
        </linearGradient>
        <linearGradient x1="50%" y1="0%" x2="50%" y2="100%" id="linearGradient-7">
            <stop stop-color="#FFBA00" offset="0%"></stop>
            <stop stop-color="#FF5500" offset="100%"></stop>
            <stop stop-color="#FF8400" offset="100%"></stop>
        </linearGradient>
        <linearGradient x1="50%" y1="0%" x2="50%" y2="100%" id="linearGradient-8">
            <stop stop-color="#FFBA00" offset="0%"></stop>
            <stop stop-color="#FF5500" offset="100%"></stop>
            <stop stop-color="#FF8400" offset="100%"></stop>
        </linearGradient>
        <linearGradient x1="50%" y1="0%" x2="50%" y2="100%" id="linearGradient-9">
            <stop stop-color="#FFBA00" offset="0%"></stop>
            <stop stop-color="#FF5500" offset="100%"></stop>
            <stop stop-color="#FF8400" offset="100%"></stop>
        </linearGradient>
    </defs>
    <g id="Page-1" stroke="none" stroke-width="1" fill="none" fill-rule="evenodd">
        <g id="LOGO---Final" fill-rule="nonzero">
            <path d="M89.9313305,96 L42.0686695,96 C36.5236052,96 32,91.5113122 32,86.0090498 L32,9.99095023 C32,4.48868778 36.5236052,0 42.0686695,0 L89.9313305,0 C95.4763948,0 100,4.48868778 100,9.99095023 L100,86.1538462 C99.8540773,91.5113122 95.4763948,96 89.9313305,96 Z M42.0686695,2.8959276 C38.1287554,2.8959276 34.9184549,6.08144796 34.9184549,9.99095023 L34.9184549,86.1538462 C34.9184549,90.0633484 38.1287554,93.2488688 42.0686695,93.2488688 L89.9313305,93.2488688 C93.8712446,93.2488688 97.0815451,90.0633484 97.0815451,86.1538462 L97.0815451,9.99095023 C97.0815451,6.08144796 93.8712446,2.8959276 89.9313305,2.8959276 L42.0686695,2.8959276 Z" id="Shape" fill="url(#linearGradient-1)"></path>
            <path d="M91,19 L89.4810127,19 L89.4810127,16.0666667 L91,16.0666667 L91,19 Z M91,13.1333333 L89.4810127,13.1333333 L89.4810127,10.2 L91,10.2 L91,13.1333333 Z M88.1139241,9.46666667 L85.0759494,9.46666667 L85.0759494,8 L88.1139241,8 L88.1139241,9.46666667 Z M82.0379747,9.46666667 L79,9.46666667 L79,8 L82.0379747,8 L82.0379747,9.46666667 Z" id="Shape" fill="url(#linearGradient-2)"></path>
            <path d="M51,88 L48.1794872,88 L48.1794872,86.5333333 L51,86.5333333 L51,88 Z M45.3589744,88 L42.5384615,88 L42.5384615,86.5333333 L45.3589744,86.5333333 L45.3589744,88 Z M41.4102564,85.8 L40,85.8 L40,82.8666667 L41.4102564,82.8666667 L41.4102564,85.8 Z M41.4102564,79.9333333 L40,79.9333333 L40,77 L41.4102564,77 L41.4102564,79.9333333 Z" id="Shape" fill="url(#linearGradient-3)"></path>
            <path d="M100.124007,113 C99.2490278,113 98.5198787,112.855263 97.6448999,112.710526 L59,102.868421 L59.7291491,100.118421 L98.3740489,109.815789 C100.269836,110.25 102.165624,109.960526 103.769752,109.092105 C105.37388,108.078947 106.540518,106.631579 106.978008,104.75 L125.790053,31.0789474 C126.810862,27.3157895 124.477585,23.4078947 120.68601,22.5394737 L97.6448999,16.75 L98.3740489,14 L121.415159,19.7894737 C126.810862,21.0921053 130.019118,26.5921053 128.70665,31.9473684 L109.894604,105.473684 C109.165455,108.078947 107.561327,110.25 105.22805,111.552632 C103.623922,112.565789 101.873964,113 100.124007,113 Z" id="Path" fill="url(#linearGradient-4)"></path>
            <path d="M109.428571,72 L108,71.7133106 L108.714286,68.9897611 L110.142857,69.2764505 L109.428571,72 Z M110.714286,66.4095563 L109.285714,66.1228669 L110,63.3993174 L111.428571,63.6860068 L110.714286,66.4095563 Z M112.142857,60.8191126 L110.714286,60.5324232 L111.428571,57.8088737 L112.857143,58.0955631 L112.142857,60.8191126 Z M113.571429,55.2286689 L112.142857,54.9419795 L112.857143,52.21843 L114.285714,52.5051195 L113.571429,55.2286689 Z M115,49.78157 L113.571429,49.4948805 L114.285714,46.7713311 L115.714286,47.0580205 L115,49.78157 Z M116.428571,44.1911263 L115,43.9044369 L115.714286,41.1808874 L117.142857,41.4675768 L116.428571,44.1911263 Z M117.857143,38.6006826 L116.428571,38.3139932 L117.142857,35.5904437 L118.571429,35.8771331 L117.857143,38.6006826 Z M119.285714,33.0102389 L117.857143,32.7235495 L118.571429,30 L120,30.2866894 L119.285714,33.0102389 Z" id="Shape" fill="url(#linearGradient-5)"></path>
            <path d="M28.6866045,110 C26.9481242,110 25.2096439,109.564586 23.616037,108.548621 C21.2980633,107.24238 19.7044563,105.065312 18.9800895,102.45283 L0.291426438,28.5776488 C-1.01243378,23.2075472 2.17478008,17.8374456 7.53509431,16.3860668 L32.7430585,10 L33.4674253,12.7576197 L8.25946109,19.1436865 C4.4927538,20.1596517 2.17478008,23.9332366 3.18889359,27.7068215 L21.8775567,101.582003 C22.3121768,103.468795 23.4711636,104.920174 25.0647705,105.936139 C26.6583775,106.952104 28.5417311,107.24238 30.4250848,106.661829 L76.3499391,95.1959361 C77.6537993,94.9056604 78.8127861,94.179971 79.8268996,93.1640058 L82,95.1959361 C80.6961398,96.6473149 79.1025329,97.5181422 77.2191792,98.0986938 L31.1494516,109.709724 C30.2802114,110 29.4109713,110 28.6866045,110 Z" id="Path" fill="url(#linearGradient-6)"></path>
            <path d="M27.5106383,101 L26.7659574,98.253012 L28.2553191,97.9638554 L29,100.710843 L27.5106383,101 Z M26.0212766,95.3614458 L25.2765957,92.6144578 L26.7659574,92.3253012 L27.5106383,95.0722892 L26.0212766,95.3614458 Z M24.5319149,89.7228916 L23.787234,86.9759036 L25.2765957,86.686747 L26.0212766,89.4337349 L24.5319149,89.7228916 Z M23.0425532,84.0843373 L22.2978723,81.3373494 L23.787234,81.0481928 L24.5319149,83.7951807 L23.0425532,84.0843373 Z M21.7021277,78.5903614 L20.9574468,75.8433735 L22.4468085,75.5542169 L23.1914894,78.3012048 L21.7021277,78.5903614 Z M20.212766,72.9518072 L19.4680851,70.2048193 L20.9574468,69.9156627 L21.7021277,72.6626506 L20.212766,72.9518072 Z M18.7234043,67.313253 L17.9787234,64.5662651 L19.4680851,64.2771084 L20.212766,67.0240964 L18.7234043,67.313253 Z M17.2340426,61.6746988 L16.4893617,58.9277108 L17.9787234,58.6385542 L18.7234043,61.3855422 L17.2340426,61.6746988 Z M15.7446809,56.0361446 L15,53.2891566 L16.4893617,53 L17.2340426,55.746988 L15.7446809,56.0361446 Z" id="Shape" fill="url(#linearGradient-7)"></path>
            <path d="M63.6545741,30.145 C67.4684543,33.6975 69.2523659,38.29125 69.3138801,44.66125 C69.3138801,46.37625 70.544164,47.84625 72.2050473,48.09125 C72.3895899,48.1525 72.5741325,48.1525 72.7586751,48.1525 C74.6656151,48.1525 76.1419558,46.6825 76.20347,44.78375 C76.20347,44.6 76.20347,44.4775 76.20347,44.29375 C76.20347,44.04875 76.20347,43.4975 76.2649842,42.885 C76.2649842,42.33375 76.9416404,42.08875 77.3107256,42.45625 C80.5709779,46.00875 82.477918,50.6025 82.477918,55.2575 C82.477918,59.23875 80.5709779,63.3425 77.3107256,66.46625 C73.988959,69.65125 69.6829653,71.4275 65.4384858,71.4275 C61.1940063,71.4275 56.8880126,69.59 53.5662461,66.46625 C50.3059937,63.3425 48.3990536,59.23875 48.3990536,55.2575 C48.3990536,48.94875 52.2744479,44.53875 55.6577287,40.74125 C59.533123,36.3925 61.5630915,32.84 61.9321767,29.96125 C61.9936909,29.47125 62.5473186,29.2875 62.9164038,29.59375 L63.6545741,30.145 Z M59.9022082,25 C59.4716088,25 59.1025237,25.18375 58.8564669,25.55125 C58.6104101,25.98 58.9794953,26.89875 59.4100946,28.0625 C60.2712934,30.69625 57.626183,34.9225 53.873817,39.14875 C50.3675079,43.13 46,48.03 46,55.31875 C46,65.11875 55.2886435,74 65.5,74 C75.7113565,74 85,65.11875 85,55.31875 C85,49.1325 82.0473186,43.0075 77.126183,38.90375 L76.511041,38.41375 C76.20347,38.16875 75.8958991,38.04625 75.5268139,38.04625 C74.9731861,38.04625 74.4195584,38.3525 74.1735016,38.90375 C73.988959,39.3325 73.8044164,43.62 73.8044164,44.355 C73.8044164,44.4775 73.8044164,44.7225 73.8044164,44.78375 C73.8044164,45.335 73.373817,45.76375 72.8201893,45.76375 C72.7586751,45.76375 72.6971609,45.76375 72.6356467,45.76375 C72.1435331,45.7025 71.7744479,45.2125 71.7744479,44.7225 C71.7129338,37.3725 69.4984227,32.2275 65.3154574,28.36875 C63.4085174,26.5925 61.2555205,25 59.9022082,25 L59.9022082,25 Z" id="Shape-Copy-7" fill="url(#linearGradient-8)"></path>
            <path d="M65.0610687,53.8840125 L68.9083969,58.5862069 L68.9694656,58.6489028 L69.0305344,58.7115987 C70.0687023,59.7774295 70.6183206,61.2194357 70.6183206,62.7241379 C70.6183206,65.8589342 68.1145038,68.4294671 65.0610687,68.4294671 C62.0076336,68.4294671 59.5038168,65.8589342 59.5038168,62.7241379 C59.5038168,61.2194357 60.0534351,59.7774295 61.0916031,58.7115987 L61.1526718,58.6489028 L61.2137405,58.5862069 L65.0610687,53.8840125 M65.0610687,51 C64.5725191,51 64.0839695,51.1880878 63.7175573,51.6269592 L59.3206107,57.0188088 C57.9160305,58.523511 57,60.5297806 57,62.7868339 C57,67.3009404 60.6030534,71 65,71 C69.3969466,71 73,67.3009404 73,62.7868339 C73,60.5297806 72.1450382,58.523511 70.6793893,57.0188088 L66.2824427,51.6269592 C66.0381679,51.1880878 65.5496183,51 65.0610687,51 L65.0610687,51 Z" id="Shape-Copy-6" fill="url(#linearGradient-9)"></path>
        </g>
    </g>
</svg>