<?xml version="1.0" encoding="UTF-8"?>
<svg width="58px" height="58px" viewBox="0 0 58 58" version="1.1" xmlns="http://www.w3.org/2000/svg" xmlns:xlink="http://www.w3.org/1999/xlink">
    <!-- Generator: Sketch 61.2 (89653) - https://sketch.com -->
    <title>noun_checkmark_1379283</title>
    <desc>Created with Sketch.</desc>
    <defs>
        <linearGradient x1="50%" y1="-20.6668736%" x2="50%" y2="174.122087%" id="linearGradient-1">
            <stop stop-color="#FFBA00" offset="0%"></stop>
            <stop stop-color="#FF5500" offset="100%"></stop>
            <stop stop-color="#FF8400" offset="100%"></stop>
        </linearGradient>
        <linearGradient x1="50%" y1="-20.6668736%" x2="50%" y2="174.122087%" id="linearGradient-2">
            <stop stop-color="#FFBA00" offset="0%"></stop>
            <stop stop-color="#FF5500" offset="100%"></stop>
            <stop stop-color="#FF8400" offset="100%"></stop>
        </linearGradient>
    </defs>
    <g id="Page-1" stroke="none" stroke-width="1" fill="none" fill-rule="evenodd">
        <g id="Artboard" transform="translate(-228.000000, -536.000000)" fill-rule="nonzero">
            <g id="noun_checkmark_1379283" transform="translate(228.000000, 536.000000)">
                <path d="M40.6148718,17.6528205 L25.3489744,33.6548718 L17.0505128,26.3676923 C16.1182845,25.5607193 14.7083833,25.6622589 13.9014103,26.5944872 C13.0944373,27.5267155 13.1959768,28.9366168 14.1282051,29.7435897 L24.0179487,38.4212821 C24.9161195,39.2111846 26.2774414,39.1521393 27.1038462,38.2874359 L43.8717949,20.7312821 C44.4467449,20.1593931 44.6660573,19.3205376 44.444577,18.540428 C44.2230967,17.7603184 43.5957141,17.1618474 42.8060305,16.9773905 C42.0163469,16.7929336 41.1887632,17.0515489 40.6446154,17.6528205 L40.6148718,17.6528205 Z" id="Path" fill="url(#linearGradient-1)"></path>
                <path d="M29,0 C12.9837423,0 0,12.9837423 0,29 C0,45.0162577 12.9837423,58 29,58 C45.0162577,58 58,45.0162577 58,29 C58,12.9837423 45.0162577,0 29,0 Z M29,53.5384615 C15.4477819,53.5384615 4.46153846,42.5522181 4.46153846,29 C4.46153846,15.4477819 15.4477819,4.46153846 29,4.46153846 C42.5522181,4.46153846 53.5384615,15.4477819 53.5384615,29 C53.5384615,35.5080046 50.9531668,41.7494583 46.3513126,46.3513126 C41.7494583,50.9531668 35.5080046,53.5384615 29,53.5384615 Z" id="Shape" fill="url(#linearGradient-2)"></path>
            </g>
        </g>
    </g>
</svg>