<?xml version="1.0" encoding="UTF-8"?>
<svg width="64px" height="57px" viewBox="0 0 64 57" version="1.1" xmlns="http://www.w3.org/2000/svg" xmlns:xlink="http://www.w3.org/1999/xlink">
    <!-- Generator: Sketch 61.2 (89653) - https://sketch.com -->
    <title>Group 3</title>
    <desc>Created with Sketch.</desc>
    <defs>
        <linearGradient x1="50%" y1="-20.6668736%" x2="50%" y2="174.122087%" id="linearGradient-1">
            <stop stop-color="#FFBA00" offset="0%"></stop>
            <stop stop-color="#FF5500" offset="100%"></stop>
            <stop stop-color="#FF8400" offset="100%"></stop>
        </linearGradient>
        <linearGradient x1="50%" y1="-20.6668736%" x2="50%" y2="174.122087%" id="linearGradient-2">
            <stop stop-color="#FFBA00" offset="0%"></stop>
            <stop stop-color="#FF5500" offset="100%"></stop>
            <stop stop-color="#FF8400" offset="100%"></stop>
        </linearGradient>
    </defs>
    <g id="Page-1" stroke="none" stroke-width="1" fill="none" fill-rule="evenodd">
        <g id="Artboard" transform="translate(-435.000000, -536.000000)" fill-rule="nonzero">
            <g id="Group-3" transform="translate(435.000000, 536.000000)">
                <g id="noun_like_1555605">
                    <path d="M12.5887755,23.1683673 L1.96734694,23.1683673 C0.975510204,23.1683673 0.196938776,23.9469388 0.196938776,24.9387755 L0.196938776,53.2622449 C0.196938776,54.2540816 0.975510204,55.0326531 1.96734694,55.0326531 L12.5887755,55.0326531 C13.5806122,55.0326531 14.3581643,54.2540816 14.3581643,53.2622449 L14.3581643,24.9387755 C14.3591837,23.9469388 13.5806122,23.1683673 12.5887755,23.1683673 Z" id="Path" fill="url(#linearGradient-1)"></path>
                    <path d="M63.8030612,26.5234694 C63.8030612,23.6387755 61.822449,20.7193878 58.0397959,20.7193878 L40.8897959,20.7193878 C43.3397959,16.3367347 44.0602041,10.172449 42.3571429,5.6622449 C41.1061224,2.34489796 38.7153061,0.409183673 35.6214286,0.212244898 L35.5714286,0.208163265 C33.5581633,0.0846938776 31.8153061,1.59285714 31.6479592,3.60306122 C31.2071429,8.07653061 29.2469388,15.9887755 26.4377551,18.7979592 C24.072449,21.1632653 22.0479592,22.1540816 18.6918367,23.794898 C18.2061224,24.0326531 17.6755102,24.2918367 17.1142857,24.5714286 C17.1244898,24.6928571 17.1306122,24.8142857 17.1306122,24.9387755 L17.1306122,52.9734694 C17.5357143,53.1122449 17.9357143,53.25 18.3285714,53.3846939 C23.8673469,55.2938776 28.6540816,56.9418367 35.9704082,56.9418367 L49.8357143,56.9418367 C53.6193878,56.9418367 55.5989796,54.0214286 55.5989796,51.1377551 C55.5989796,50.2816327 55.4255102,49.4234694 55.0816327,48.6377551 C56.3418367,48.4112245 57.444898,47.805102 58.2622449,46.877551 C59.1897959,45.8234694 59.7010204,44.422449 59.7010204,42.9326531 C59.7010204,42.0795918 59.527551,41.2214286 59.1846939,40.4377551 C62.222449,39.9132653 63.8040816,37.3061224 63.8040816,34.7285714 C63.8040816,33.2336735 63.2714286,31.7285714 62.2326531,30.6265306 C63.2693878,29.5234694 63.8030612,28.0183673 63.8030612,26.5234694 Z" id="Path" fill="url(#linearGradient-2)"></path>
                </g>
            </g>
        </g>
    </g>
</svg>